<svg width="26" height="25" viewBox="0 0 26 25" fill="none" xmlns="http://www.w3.org/2000/svg">
<path d="M13.3741 23.6123C13.034 23.952 12.5729 24.1429 12.0922 24.1429C11.6114 24.1429 11.1504 23.952 10.8102 23.6123L0.530529 13.332C0.190815 12.9919 0 12.5308 0 12.05C0 11.5693 0.190815 11.1082 0.530529 10.768L10.8102 0.487784C11.154 0.166938 11.609 -0.00785171 12.0792 0.000270933C12.5494 0.00839357 12.998 0.198793 13.3306 0.531324C13.6631 0.863871 13.8535 1.31255 13.8616 1.78276C13.8697 2.25297 13.6949 2.70797 13.3741 3.0518L6.19041 10.2359H24.1859C24.6671 10.2359 25.1285 10.427 25.4687 10.7672C25.8089 11.1075 26 11.5689 26 12.05C26 12.5312 25.8089 12.9926 25.4687 13.3328C25.1285 13.6731 24.6671 13.8642 24.1859 13.8642H6.19041L13.3741 21.0483C13.7138 21.3884 13.9046 21.8495 13.9046 22.3303C13.9046 22.811 13.7138 23.2721 13.3741 23.6123Z" fill="white"/>
</svg>
